<svg xmlns="http://www.w3.org/2000/svg" width="472" height="364" fill="none" viewBox="0 0 472 364">
    <g clip-path="url(#clip0)">
        <g clip-path="url(#clip1)">
            <rect width="474" height="364" fill="#E3F9FF" rx="8"/>
            <path stroke="#00ACD7" stroke-width="2" d="M196.563-204.35c-97.113-30.73-151.56 23.224-171.682 84.611C4.759-58.352 31.098 25.367 15.72 84.206c-15.378 58.84-73.846 87.717-73.846 87.717" opacity=".06"/>
            <path stroke="#00ACD7" stroke-width="2" d="M209.36-87.192C112.247-117.92 57.8-63.968 37.678-2.58c-20.122 61.387 6.217 145.105-9.16 203.945-15.378 58.839-73.846 87.716-73.846 87.716" opacity=".06"/>
            <path stroke="#00ACD7" stroke-width="2" d="M183.413-102.658C84.228-88.751 45.674-13.65 41.357 53.295 37.039 120.24 82 187.745 81.559 250.182c-.442 62.436-48.806 115.606-48.806 115.606M710.594-156.869c-148.856-47.102-232.313 35.598-263.156 129.693-30.843 94.095 9.53 222.42-14.041 312.609-23.571 90.19-113.191 134.452-113.191 134.452" opacity=".06"/>
            <path stroke="#00ACD7" stroke-width="2" d="M630.563 41.307c-97.113-30.73-151.56 23.224-171.682 84.611-20.122 61.387 6.217 145.106-9.161 203.945-15.377 58.84-73.845 87.717-73.845 87.717" opacity=".06"/>
        </g>
        <path fill="#00ACD7" d="M99.64 135.159c-.48 0-.6-.242-.36-.606l2.525-3.272c.241-.364.842-.606 1.323-.606h42.933c.481 0 .601.364.361.727l-2.045 3.151c-.24.364-.842.728-1.202.728l-43.535-.122zM81.481 146.31c-.481 0-.601-.243-.36-.606l2.525-3.273c.24-.363.841-.606 1.323-.606h54.838c.481 0 .722.364.602.727l-.962 2.909c-.121.485-.602.727-1.083.727l-56.883.122zM110.584 157.46c-.481 0-.601-.364-.361-.727l1.684-3.03c.24-.364.721-.728 1.203-.728h24.052c.481 0 .721.364.721.849l-.24 2.909c0 .484-.481.848-.842.848l-26.217-.121zM235.414 132.978c-7.576 1.939-12.747 3.393-20.203 5.333-1.804.484-1.925.606-3.488-1.212-1.804-2.061-3.127-3.394-5.652-4.606-7.577-3.757-14.913-2.666-21.767 1.818-8.178 5.333-12.387 13.211-12.267 23.028.12 9.695 6.735 17.694 16.235 19.028 8.178 1.09 15.033-1.818 20.444-8 1.083-1.333 2.045-2.787 3.247-4.484h-23.21c-2.525 0-3.127-1.575-2.285-3.636 1.564-3.757 4.45-10.059 6.134-13.21.36-.727 1.202-1.939 3.006-1.939h43.775c-.241 3.272-.241 6.544-.722 9.817-1.323 8.726-4.57 16.725-9.861 23.754-8.659 11.514-19.963 18.665-34.274 20.604-11.786 1.575-22.729-.727-32.35-7.999-8.9-6.787-13.95-15.756-15.273-26.906-1.564-13.211 2.285-25.088 10.222-35.511 8.538-11.271 19.843-18.422 33.673-20.967 11.304-2.06 22.128-.727 31.869 5.939 6.373 4.242 10.943 10.059 13.95 17.088.721 1.091.24 1.697-1.203 2.061z"/>
        <path fill="#00ACD7" d="M275.22 200c-10.943-.242-20.925-3.394-29.343-10.665-7.095-6.181-11.545-14.059-12.988-23.391-2.165-13.696 1.563-25.816 9.741-36.602 8.779-11.635 19.362-17.695 33.673-20.24 12.266-2.182 23.811-.97 34.274 6.181 9.501 6.545 15.393 15.392 16.957 27.027 2.044 16.362-2.646 29.693-13.83 41.086-7.937 8.12-17.679 13.21-28.863 15.513-3.247.606-6.494.727-9.621 1.091zm28.622-48.964c-.12-1.575-.12-2.787-.36-3.999-2.165-11.999-13.109-18.786-24.533-16.12-11.185 2.546-18.4 9.696-21.046 21.089-2.165 9.453 2.405 19.028 11.064 22.906 6.614 2.909 13.229 2.545 19.602-.727 9.501-4.969 14.672-12.726 15.273-23.149zM138.814 247.408c-1.983 0-3.791-.493-5.423-1.479-1.62-.997-2.912-2.448-3.876-4.352-.952-1.915-1.428-4.267-1.428-7.055 0-2.777.505-5.128 1.513-7.055 1.009-1.927 2.363-3.394 4.063-4.403 1.712-1.009 3.621-1.513 5.729-1.513 1.757 0 3.242.283 4.454.85 1.224.567 2.216 1.292 2.975 2.176.771.884 1.332 1.819 1.683 2.805.352.975.527 1.876.527 2.703v.204h-5.134v-.102-.102c0-.521-.096-1.037-.289-1.547-.192-.521-.481-.986-.867-1.394-.374-.408-.844-.737-1.411-.986-.555-.249-1.201-.374-1.938-.374-.997 0-1.949.283-2.856.85-.906.567-1.649 1.49-2.227 2.771-.578 1.269-.867 2.975-.867 5.117 0 1.632.159 3.003.476 4.114.329 1.111.765 2 1.309 2.669.544.657 1.162 1.133 1.853 1.428.703.295 1.428.442 2.176.442 1.032 0 1.893-.17 2.584-.51.703-.351 1.253-.782 1.649-1.292.397-.51.652-1.014.765-1.513v-1.632h-4.964v-3.808h9.639V247h-2.771l-.476-2.771c-.09.215-.283.499-.578.85-.294.351-.714.708-1.258 1.071-.532.351-1.218.646-2.057.884-.827.249-1.819.374-2.975.374zm23.385-.017c-1.95 0-3.667-.402-5.151-1.207-1.485-.805-2.647-1.91-3.485-3.315-.828-1.417-1.241-3.049-1.241-4.896 0-1.836.413-3.457 1.241-4.862.838-1.417 2-2.516 3.485-3.298 1.484-.793 3.201-1.19 5.151-1.19 1.949 0 3.666.397 5.151 1.19 1.484.782 2.64 1.881 3.468 3.298.838 1.405 1.258 3.026 1.258 4.862 0 1.847-.42 3.479-1.258 4.896-.828 1.405-1.984 2.51-3.468 3.315-1.485.805-3.202 1.207-5.151 1.207zm0-4.182c.918 0 1.717-.215 2.397-.646.68-.431 1.207-1.037 1.581-1.819.374-.793.561-1.717.561-2.771 0-1.054-.187-1.966-.561-2.737-.374-.782-.901-1.383-1.581-1.802-.68-.419-1.479-.629-2.397-.629-.907 0-1.706.21-2.397.629-.68.419-1.207 1.02-1.581 1.802-.374.771-.561 1.683-.561 2.737s.187 1.978.561 2.771c.374.782.901 1.388 1.581 1.819.691.431 1.49.646 2.397.646zm38.329-17.204h-8.279l2.108-2.516V247h-5.253v-23.511l2.176 2.516h-8.33v-4.08h17.578v4.08zm2.827 13.549v-3.485h11.968l-.51.884v-.255-.255c0-.646-.153-1.264-.459-1.853-.306-.601-.782-1.088-1.428-1.462-.634-.385-1.45-.578-2.448-.578-.997 0-1.858.215-2.584.646-.714.419-1.263 1.026-1.649 1.819-.374.793-.561 1.751-.561 2.873 0 1.156.182 2.148.544 2.975.374.816.924 1.445 1.649 1.887.737.442 1.649.663 2.737.663.703 0 1.309-.062 1.819-.187.51-.136.924-.306 1.241-.51.329-.204.578-.431.748-.68.17-.249.272-.493.306-.731h5.202c-.068.759-.328 1.507-.782 2.244-.453.725-1.082 1.383-1.887 1.972-.804.578-1.785 1.037-2.941 1.377-1.144.34-2.453.51-3.927.51-1.994 0-3.734-.397-5.219-1.19-1.484-.805-2.635-1.91-3.451-3.315-.816-1.417-1.224-3.049-1.224-4.896 0-1.87.414-3.508 1.241-4.913.839-1.417 2.001-2.516 3.485-3.298 1.496-.793 3.225-1.19 5.185-1.19 2.006 0 3.74.402 5.202 1.207 1.462.793 2.59 1.91 3.383 3.349.794 1.428 1.19 3.094 1.19 4.998 0 .283-.005.555-.017.816-.011.261-.028.453-.051.578h-16.762zM234.75 247v-6.987-1.734-1.241c0-.465-.028-.924-.085-1.377-.045-.453-.159-.873-.34-1.258-.17-.397-.436-.708-.799-.935-.363-.238-.856-.357-1.479-.357-.578 0-1.077.125-1.496.374-.419.238-.765.572-1.037 1.003-.261.419-.453.907-.578 1.462-.125.544-.187 1.116-.187 1.717l-1.445-1.19c0-1.53.278-2.884.833-4.063.555-1.19 1.343-2.119 2.363-2.788 1.031-.68 2.25-1.02 3.655-1.02 1.507 0 2.68.323 3.519.969.85.635 1.445 1.485 1.785 2.55.351 1.054.527 2.221.527 3.502V247h-5.236zm-11.271 0v-18.054h5.27V247h-5.27zm22.491 0v-6.97-1.785-1.241c0-.499-.028-.975-.085-1.428-.057-.465-.176-.884-.357-1.258s-.453-.669-.816-.884c-.363-.215-.856-.323-1.479-.323-.578 0-1.077.125-1.496.374-.408.238-.742.567-1.003.986-.261.419-.453.895-.578 1.428-.113.533-.17 1.088-.17 1.666l-1.445-1.173c0-1.507.272-2.845.816-4.012.555-1.167 1.337-2.085 2.346-2.754 1.02-.68 2.238-1.02 3.655-1.02 1.473 0 2.635.312 3.485.935.861.623 1.473 1.456 1.836 2.499.374 1.031.561 2.187.561 3.468V247h-5.27zm9.218 7.429v-25.483h5.287v25.483h-5.287zm10.863-7.021c-1.428 0-2.737-.38-3.927-1.139-1.19-.771-2.142-1.802-2.856-3.094-.714-1.303-1.071-2.765-1.071-4.386v-.119-.153l2.278-.051v.204c0 .839.204 1.575.612 2.21.408.623.935 1.105 1.581 1.445.646.34 1.32.51 2.023.51 1.156 0 2.159-.397 3.009-1.19.861-.805 1.292-2.057 1.292-3.757 0-1.7-.425-2.935-1.275-3.706-.85-.782-1.859-1.173-3.026-1.173-.703 0-1.377.17-2.023.51-.646.329-1.173.799-1.581 1.411-.408.612-.612 1.343-.612 2.193l-2.278-.136c0-1.632.357-3.071 1.071-4.318.714-1.258 1.666-2.25 2.856-2.975 1.19-.725 2.499-1.088 3.927-1.088 1.462 0 2.828.363 4.097 1.088 1.269.714 2.295 1.762 3.077 3.145.793 1.383 1.19 3.066 1.19 5.049 0 2.074-.385 3.819-1.156 5.236-.771 1.417-1.791 2.488-3.06 3.213-1.269.714-2.652 1.071-4.148 1.071zm17.106-26.979V247h-5.202v-26.571h5.202zm10.325 26.945c-1.315 0-2.488-.21-3.519-.629-1.02-.419-1.819-1.026-2.397-1.819-.578-.793-.867-1.757-.867-2.89 0-1.281.351-2.323 1.054-3.128.702-.805 1.632-1.417 2.788-1.836 1.167-.431 2.431-.714 3.791-.85 1.983-.193 3.349-.368 4.097-.527.759-.159 1.139-.436 1.139-.833v-.034c0-.669-.323-1.196-.969-1.581-.635-.385-1.525-.578-2.669-.578-1.213 0-2.142.221-2.788.663-.635.431-.952 1.094-.952 1.989h-5.185c0-1.451.391-2.675 1.173-3.672.793-.997 1.864-1.751 3.213-2.261 1.348-.521 2.873-.782 4.573-.782 1.586 0 3.054.244 4.403.731 1.348.476 2.431 1.196 3.247 2.159.827.963 1.241 2.187 1.241 3.672V242.971c0 .465.011.912.034 1.343.034.419.102.805.204 1.156.113.397.255.725.425.986.17.261.311.442.425.544h-5.185c-.08-.079-.204-.244-.374-.493-.159-.249-.295-.538-.408-.867-.136-.397-.238-.793-.306-1.19-.057-.408-.085-.884-.085-1.428l1.088.748c-.318.748-.833 1.394-1.547 1.938-.703.533-1.542.946-2.516 1.241-.964.283-2.006.425-3.128.425zm1.411-3.944c.827 0 1.598-.147 2.312-.442.725-.306 1.314-.782 1.768-1.428.453-.646.68-1.49.68-2.533v-1.819l1.309 1.275c-.748.272-1.615.499-2.601.68-.975.17-1.95.306-2.924.408-1.156.113-2.023.312-2.601.595-.567.272-.85.737-.85 1.394 0 .623.243 1.094.731 1.411.487.306 1.212.459 2.176.459zm22.294 3.944c-.691 0-1.405-.062-2.142-.187-.725-.113-1.405-.346-2.04-.697-.623-.363-1.128-.89-1.513-1.581s-.578-1.604-.578-2.737v-.765-8.381h-4.165v-4.08h1.173c.68 0 1.218-.028 1.615-.085.408-.057.708-.198.901-.425.204-.238.334-.606.391-1.105.057-.499.085-1.184.085-2.057v-2.278h5.287v5.95h5.253v4.08h-5.253V240.676c0 .782.091 1.417.272 1.904.193.487.663.731 1.411.731.374 0 .725-.034 1.054-.102.34-.068.595-.136.765-.204v3.961c-.238.102-.572.193-1.003.272-.431.091-.935.136-1.513.136zm9.053-7.82v-3.485h11.968l-.51.884v-.255-.255c0-.646-.153-1.264-.459-1.853-.306-.601-.782-1.088-1.428-1.462-.635-.385-1.451-.578-2.448-.578-.997 0-1.859.215-2.584.646-.714.419-1.264 1.026-1.649 1.819-.374.793-.561 1.751-.561 2.873 0 1.156.181 2.148.544 2.975.374.816.924 1.445 1.649 1.887.737.442 1.649.663 2.737.663.703 0 1.309-.062 1.819-.187.51-.136.924-.306 1.241-.51.329-.204.578-.431.748-.68.17-.249.272-.493.306-.731h5.202c-.068.759-.329 1.507-.782 2.244-.453.725-1.082 1.383-1.887 1.972-.805.578-1.785 1.037-2.941 1.377-1.145.34-2.454.51-3.927.51-1.995 0-3.734-.397-5.219-1.19-1.485-.805-2.635-1.91-3.451-3.315-.816-1.417-1.224-3.049-1.224-4.896 0-1.87.414-3.508 1.241-4.913.839-1.417 2-2.516 3.485-3.298 1.496-.793 3.224-1.19 5.185-1.19 2.006 0 3.74.402 5.202 1.207 1.462.793 2.59 1.91 3.383 3.349.793 1.428 1.19 3.094 1.19 4.998 0 .283-.006.555-.017.816-.011.261-.028.453-.051.578H326.24z"/>
    </g>
    <defs>
        <clipPath id="clip0">
            <rect width="472" height="364" fill="#fff" rx="8"/>
        </clipPath>
        <clipPath id="clip1">
            <path fill="#fff" d="M0 0H474V364H0z"/>
        </clipPath>
    </defs>
</svg>
